<svg width="30" height="30" viewBox="0 0 30 30" fill="#EA6859" xmlns="http://www.w3.org/2000/svg">
  <g clipPath="url(#clip0_75_17194)" transform="rotate(180, 15, 15)">
    <path
      d="M24.6329 0.518931C21.57 0.653523 18.7631 2.03435 16.1682 3.59295C15.4398 4.02212 14.4974 4.00752 13.7798 3.56248C12.69 2.89396 11.6752 2.35369 10.5988 1.87437C7.90547 0.742405 4.17513 -0.48225 1.7365 1.73787C-1.20446 5.02965 1.77397 10.8476 3.71535 14.0263C4.45519 12.9642 5.2814 11.8976 6.187 10.8444C5.40968 9.35816 4.30722 7.23263 4.28118 5.39787C4.27166 4.75285 4.81908 4.2348 5.46303 4.28051C7.00305 4.38844 9.3896 5.21059 9.92305 5.91338C10.5727 6.76474 10.4121 7.98241 9.63537 8.74424C9.23338 9.13532 8.8225 9.54862 8.43701 9.9543C6.96304 11.4989 5.50685 13.281 4.34977 14.997C4.34914 14.997 4.34914 14.9977 4.34914 14.9977C2.41665 17.9326 0.614349 21.2327 0.514645 24.8178C0.623241 31.7549 8.6758 29.4637 12.5719 27.1376C14.0535 26.2322 15.0785 25.5396 16.6915 26.7166C19.8979 28.5489 25.6116 31.2508 28.5538 27.9299C28.5538 27.9299 28.5538 27.9299 28.5538 27.9292C31.1328 24.24 27.8051 18.2564 25.6503 14.9977C25.6497 14.9977 25.6497 14.9964 25.6503 14.9964C24.9359 13.9419 24.13 12.8778 23.239 11.8227L23.239 11.8233C22.4706 10.9136 21.6571 10.0292 20.8137 9.18547C20.0669 8.56204 19.4794 7.64974 19.7214 6.68157C19.8573 5.76101 20.8016 5.28486 21.6329 5.00425C22.5671 4.67984 23.5978 4.28368 24.6088 4.26654C25.2267 4.25575 25.7322 4.76808 25.7221 5.38581C25.6929 7.20279 24.579 9.40323 23.8131 10.8431C24.7187 11.8963 25.5449 12.9623 26.2847 14.0244C27.7835 11.5973 29.0828 8.97978 29.4315 6.12542C29.8735 2.91555 28.1613 0.351327 24.6329 0.518296L24.6329 0.518931ZM15.7681 9.76384C16.6071 10.1974 17.2301 10.9853 17.9312 11.6094C19.019 12.6785 20.0427 13.8086 20.994 14.997L20.994 14.9977C21.8552 16.0757 22.6046 17.1416 23.239 18.1726C23.2898 18.2552 23.3406 18.3371 23.3895 18.419C24.5542 20.4931 25.9596 22.9874 25.6725 25.4336C25.6186 25.8646 24.5561 25.7123 24.163 25.6812C24.1389 25.6793 24.1154 25.6767 24.0919 25.6736C22.9634 25.5136 21.7803 25.085 20.7292 24.6063C19.4204 23.9632 19.3664 22.2027 20.3704 21.2454C21.1046 20.5311 21.8209 19.7858 22.5017 19.0214C21.8901 17.9993 21.1547 16.9289 20.2974 15.842C19.1359 17.2089 17.8721 18.5002 16.5328 19.695C14.707 21.4917 13.165 19.4144 11.8397 18.1574C11.096 17.414 10.3816 16.642 9.70269 15.8427C8.84599 16.9296 8.10996 17.9987 7.4984 19.0208C8.03883 19.6271 8.61102 20.2321 9.18702 20.8086C9.79858 21.3393 10.3663 22.0637 10.3257 22.8706C10.3676 24.0445 9.39532 24.6616 8.36716 24.9898C7.4641 25.3066 6.44102 25.6913 5.45096 25.7256C4.81273 25.7478 4.29262 25.226 4.30468 24.5873C4.36438 21.4358 7.1326 17.414 9.00539 14.997L9.00539 14.9964C9.8894 13.8924 10.8375 12.8379 11.8384 11.8367C12.4379 11.2374 13.0552 10.6596 13.6896 10.1022L13.6896 10.1016C14.2535 9.60258 15.0785 9.46862 15.7681 9.7632L15.7681 9.76384Z"
      fill="#EA6859"
    />
  </g>
</svg>